<svg width="25" height="18" viewBox="0 0 25 18" fill="none" xmlns="http://www.w3.org/2000/svg">
<path fill-rule="evenodd" clip-rule="evenodd" d="M6.04375 7.03767H4.60312L2.87184 10.9638H3.92501L4.29688 10.0843H6.31015L6.6828 10.9645H8.64843V7.88751L10.0492 10.9645H10.9039L12.2969 7.88751L12.3047 10.9645H13.2602V7.03767H11.6899L10.5243 9.69839L9.25945 7.03767H7.6813V10.7487L6.04375 7.03767ZM4.64065 9.27043L5.30394 7.70209L5.96647 9.27043H4.64065Z" fill="#333333"/>
<path fill-rule="evenodd" clip-rule="evenodd" d="M18.0195 7.03767H14.1344V10.9623H17.9594L19.1922 9.66155L20.3805 10.9623H21.6227L19.8172 9.01132L21.6227 7.03767H20.4344L19.2078 8.32341L18.0195 7.03767ZM15.0938 8.56765V7.85066L17.518 7.84999L18.5758 8.99645L17.4711 10.1492H15.0938V9.36661H17.2133V8.56765H15.0938Z" fill="#333333"/>
<path fill-rule="evenodd" clip-rule="evenodd" d="M23.4375 0H1.56248C0.699965 0 0 0.701097 0 1.56597V16.4349C0 17.2989 0.699197 18.0002 1.56248 18H23.4375C24.3 18 25 17.2989 25 16.4349V1.56597C25 0.701097 24.3 0 23.4375 0ZM1.56248 11.7331L4.03126 6.26052H6.55316L6.88125 6.90381V6.26052H9.83055L10.4774 7.67302L11.1094 6.26052H18.4696L19.2156 7.09463L20.0164 6.26052H23.4375L20.961 9.01217L23.4375 11.7402L19.9625 11.7331L19.1922 10.8832L18.3696 11.7331H11.6039V11.0531L11.314 11.7331H9.63124L9.34137 11.0671V11.7331H6.08822L5.72183 10.8606H4.88434L4.51795 11.7331H1.56248Z" fill="#333333"/>
</svg>
