<svg width="28" height="18" viewBox="0 0 28 18" fill="none" xmlns="http://www.w3.org/2000/svg">
<rect width="27.36" height="18" fill="#333333"/>
<path d="M13.7245 5.23851V12.7378C15.1993 12.1585 16.2463 10.7001 16.2487 8.98789C16.2463 7.27622 15.1993 5.81673 13.7245 5.23851Z" fill="#006095"/>
<path d="M13.7245 5.23851V12.7378C15.1993 12.1585 16.2463 10.7001 16.2487 8.98789C16.2463 7.27622 15.1993 5.81673 13.7245 5.23851Z" fill="white"/>
<path d="M10.9113 5.23868C9.43731 5.81858 8.39199 7.27723 8.38868 8.98789C8.39199 10.6992 9.43731 12.1569 10.9113 12.7363V5.23868Z" fill="#006095"/>
<path d="M10.9113 5.23868C9.43731 5.81858 8.39199 7.27723 8.38868 8.98789C8.39199 10.6992 9.43731 12.1569 10.9113 12.7363V5.23868Z" fill="white"/>
<path fill-rule="evenodd" clip-rule="evenodd" d="M22.5721 9.06023C22.5721 12.8372 19.1923 15.9417 15.4897 15.9233H12.3032C8.55628 15.9417 5.47211 12.838 5.47211 9.06023C5.47211 4.93123 8.55628 2.07597 12.3032 2.07715H15.4897C19.1923 2.07597 22.5721 4.93055 22.5721 9.06023ZM6.11902 8.98789C6.11985 5.48731 8.8943 2.65064 12.3181 2.64945C15.7431 2.65064 18.5181 5.48731 18.5186 8.98789C18.5181 12.4881 15.7431 15.3243 12.3181 15.3253C8.8943 15.3243 6.11985 12.4881 6.11902 8.98789Z" fill="#006095"/>
<path fill-rule="evenodd" clip-rule="evenodd" d="M22.5721 9.06023C22.5721 12.8372 19.1923 15.9417 15.4897 15.9233H12.3032C8.55628 15.9417 5.47211 12.838 5.47211 9.06023C5.47211 4.93123 8.55628 2.07597 12.3032 2.07715H15.4897C19.1923 2.07597 22.5721 4.93055 22.5721 9.06023ZM6.11902 8.98789C6.11985 5.48731 8.8943 2.65064 12.3181 2.64945C15.7431 2.65064 18.5181 5.48731 18.5186 8.98789C18.5181 12.4881 15.7431 15.3243 12.3181 15.3253C8.8943 15.3243 6.11985 12.4881 6.11902 8.98789Z" fill="white"/>
</svg>
