<svg width="35" height="18" viewBox="0 0 35 18" fill="none" xmlns="http://www.w3.org/2000/svg">
<path fill-rule="evenodd" clip-rule="evenodd" d="M10.5616 7.75763L3.17965 10.9531C3.1682 10.8254 3.16185 10.6961 3.16185 10.5653C3.16185 8.21966 5.05475 6.31818 7.3898 6.31818C8.6531 6.31818 9.78691 6.87512 10.5616 7.75763ZM7.3898 3.14198C10.8731 3.14198 13.7929 5.56313 14.574 8.82163L11.5955 10.1299L11.5948 10.1236L8.54774 11.4685L1.23807 14.679C0.456087 13.5014 -1.82877e-08 12.0869 -1.82877e-08 10.5653C-1.82877e-08 6.46545 3.30846 3.14198 7.3898 3.14198ZM12.5535 15.8755C9.90759 18.3982 6.40729 18.6457 3.33163 16.77L5.06937 14.116C6.81952 15.1668 8.57767 14.9964 10.344 13.6034L12.5535 15.8755ZM15.5624 14.038L15.5438 -5.4614e-07H18.1914V13.6589C18.1914 13.79 18.2075 13.9054 18.3786 13.9722L20.6818 14.872L19.6442 17.5823L16.9461 16.4356C15.9231 16.0007 15.5642 15.3706 15.5624 14.038Z" fill="black"/>
<path fill-rule="evenodd" clip-rule="evenodd" d="M25.4546 13.679C24.4778 12.9402 23.849 11.7872 23.849 10.4904C23.849 9.33753 24.3465 8.29835 25.1429 7.5626L23.46 4.90918C21.7682 6.21311 20.6818 8.22771 20.6818 10.4904C20.6818 12.9293 21.9431 15.0809 23.8652 16.3637L25.4546 13.679Z" fill="#333333"/>
<path fill-rule="evenodd" clip-rule="evenodd" d="M26.0711 6.61002C26.5311 6.45573 27.0269 6.37114 27.5439 6.37114C29.4077 6.37114 30.9971 7.4642 31.6179 9.00022L35 8.73665C34.1836 5.60141 31.1562 3.27295 27.5439 3.27295C26.5232 3.27295 25.55 3.46044 24.6591 3.79783L26.0711 6.61002Z" fill="#333333"/>
<path fill-rule="evenodd" clip-rule="evenodd" d="M31.8489 10.6362C31.7443 12.9114 29.9362 14.7229 27.7208 14.7229C27.3734 14.7229 27.0365 14.6777 26.7143 14.594L25.4546 17.6246C26.1681 17.8669 26.9293 17.9999 27.7208 17.9999C31.6448 17.9999 34.8427 14.7765 35 10.7393L31.8489 10.6362Z" fill="#333333"/>
</svg>
