<svg width="30" height="13" viewBox="0 0 30 13" fill="none" xmlns="http://www.w3.org/2000/svg">
<rect x="2.49994" y="3.03564" width="25" height="6.67857" fill="white"/>
<path d="M12.2303 6.19402H13.7615C13.9028 5.61889 13.5612 5.43486 13.096 5.452C12.5954 5.4693 12.2774 5.84888 12.2303 6.19402Z" fill="#333333"/>
<path d="M9.15606 5.3945C9.15312 5.39738 9.15017 5.39883 9.14723 5.40027C9.14428 5.40171 9.14134 5.40315 9.13839 5.40603C9.15017 5.40603 9.15606 5.40603 9.15606 5.3945Z" fill="#333333"/>
<path d="M8.87926 7.37296C8.94404 7.98252 9.80388 7.98829 10.1513 7.62601C10.4399 7.32683 10.6814 6.59073 10.593 5.9927C10.4929 5.30834 9.47997 5.36007 9.13839 5.76831C9.11578 5.88699 9.09587 6.00968 9.07543 6.13572C9.05328 6.27234 9.0305 6.4128 9.00294 6.5563C8.98859 6.63094 8.97079 6.70573 8.95304 6.7802C8.90522 6.98088 8.85779 7.17996 8.87926 7.37296Z" fill="#333333"/>
<path d="M24.7273 7.17163C24.7332 7.60871 24.9511 7.87906 25.3928 7.86753C26.1891 7.84975 26.3209 7.01147 26.4429 6.23598C26.4788 6.00775 26.5139 5.78497 26.5648 5.59006C26.3233 5.50966 26.0877 5.43486 25.7579 5.4693C25.0571 5.54409 24.7097 6.40095 24.7273 7.17163Z" fill="#333333"/>
<path d="M19.6449 7.25796C19.5506 8.02849 20.4929 7.93656 20.8286 7.61448C21.0841 7.37071 21.1507 6.93684 21.2033 6.59394L21.2055 6.5792C20.434 6.48727 19.7273 6.61956 19.6449 7.25796Z" fill="#333333"/>
<path fill-rule="evenodd" clip-rule="evenodd" d="M5.12367 0H8.23322H30C29.5716 2.07583 29.146 4.11194 28.7234 6.13444C28.5418 7.00347 28.3607 7.86993 28.1802 8.73575C28.0271 9.47762 27.8681 10.2425 27.7091 10.9154C27.3616 12.3647 26.0777 12.75 24.2049 12.75H0C0.287401 11.4059 0.565359 10.033 0.844971 8.65199C1.18989 6.94837 1.53733 5.23226 1.90813 3.54257C1.95009 3.34702 1.98835 3.14778 2.0267 2.94806C2.10676 2.53133 2.18724 2.11235 2.30271 1.71964C2.63251 0.603802 3.75147 0.0632631 5.12367 0ZM8.17844 3.88211C8.37278 4.04884 8.20199 4.44571 8.07243 4.53188C7.98998 4.58938 7.71319 4.65264 7.58362 4.53188C7.45406 4.41112 7.53062 4.07751 7.61307 3.96828C7.66607 3.89925 7.74263 3.85905 7.8722 3.83599C8.01354 3.81308 8.11954 3.83022 8.17844 3.88211ZM5.93792 5.51558C6.03689 4.9736 6.13518 4.4353 6.2232 3.88211V3.88772H6.97702C6.67667 5.2968 6.42932 6.74609 6.18786 8.21251H5.44581C5.51004 7.8174 5.58477 7.43253 5.6595 7.04767C5.72183 6.72671 5.78415 6.40575 5.84039 6.07886C5.25219 6.02313 4.52001 6.04315 3.89623 6.06013L3.83804 6.06173C3.71515 6.61092 3.6226 7.19358 3.52996 7.77672C3.50717 7.92022 3.48438 8.06372 3.46112 8.20675H2.71907C2.92717 7.18653 3.11077 6.1394 3.29415 5.09356C3.36508 4.689 3.43597 4.28459 3.50824 3.88211H4.23851C4.17667 4.16383 4.12367 4.45581 4.07067 4.74762C4.01766 5.03943 3.96466 5.33124 3.90282 5.61312C4.4253 5.6498 4.97034 5.64243 5.5109 5.63522C5.64668 5.6333 5.78217 5.63154 5.91695 5.63042L5.93792 5.51558ZM15.4929 5.64179C15.7049 5.27951 16.1584 4.89416 16.7356 5.12431C16.728 5.19334 16.7139 5.25596 16.6999 5.31859C16.6811 5.40219 16.6624 5.48579 16.659 5.58429C16.0524 5.3716 15.6284 5.76255 15.4635 6.22269C15.3185 6.62725 15.258 7.14825 15.2021 7.62985C15.1785 7.83309 15.1557 8.02929 15.1278 8.20675H14.4741L14.5307 7.9215C14.7125 7.00587 14.8937 6.09344 15.0218 5.12431H15.5989C15.5806 5.19847 15.5669 5.2771 15.5533 5.35574C15.5362 5.45408 15.5191 5.55242 15.4929 5.64179ZM17.0418 6.88975C17.0241 7.07954 17.0418 7.33259 17.1007 7.48218C17.3068 7.99982 18.1961 7.87906 18.6614 7.65468C18.6511 7.70865 18.6416 7.76407 18.632 7.81964C18.6141 7.9239 18.5961 8.02881 18.573 8.12635C17.7191 8.41383 16.6708 8.36787 16.4352 7.62024C16.235 6.97608 16.5236 5.9581 16.9535 5.51526C17.3952 5.06105 18.2314 4.97472 19.1089 5.11278C19.0994 5.18277 19.0879 5.24972 19.0765 5.31666C19.0596 5.415 19.0429 5.51286 19.0324 5.61889C18.4965 5.43486 17.8251 5.37736 17.4835 5.70505C17.2362 5.94097 17.0771 6.46421 17.0418 6.88975ZM23.1843 5.61312C23.3728 5.33124 23.8498 4.85973 24.427 5.14145C24.396 5.22842 24.3803 5.33012 24.3648 5.43054C24.3568 5.48291 24.3487 5.53496 24.3386 5.58429C23.3139 5.30257 23.1137 6.23998 22.9723 7.09684C22.955 7.20271 22.9365 7.302 22.9185 7.39842C22.869 7.66365 22.8235 7.90741 22.8192 8.20675H22.1537C22.3716 7.20607 22.5601 6.18249 22.7132 5.12431H23.2903C23.2683 5.19414 23.2553 5.27406 23.2423 5.35414C23.2274 5.44527 23.2126 5.53656 23.1843 5.61312ZM7.38927 5.17028C7.38927 5.14721 7.38927 5.12431 7.40694 5.12431H8.05476C7.83097 6.11346 7.65429 7.14857 7.49528 8.20675H6.84157C7.05359 7.2176 7.24793 6.21692 7.38927 5.17028ZM11.9829 5.52679C12.2656 5.23354 12.6661 5.10125 13.1372 5.06681C13.679 5.02645 14.2032 5.13568 14.3386 5.55562C14.4242 5.80179 14.3721 6.06477 14.3217 6.31878C14.3062 6.3971 14.2908 6.47462 14.2797 6.55053C13.5789 6.53324 12.8427 6.52747 12.1419 6.55053C12.0359 7.00491 12.0359 7.52815 12.3716 7.73524C12.8192 8.01135 13.5671 7.78697 13.997 7.63177C13.9866 7.70801 13.9716 7.78104 13.9566 7.85392C13.9376 7.94601 13.9186 8.03826 13.9087 8.13772C12.8604 8.38517 11.553 8.4196 11.4352 7.39586C11.3528 6.6713 11.6354 5.88347 11.9829 5.52679ZM9.15606 5.3945C9.44463 5.16451 10.116 4.92299 10.6696 5.12431C11.8062 5.54409 11.1525 7.67197 10.3162 8.12058C9.904 8.33904 8.93227 8.44843 8.78503 7.88483C8.69595 8.25255 8.63749 8.65007 8.57903 9.04775C8.55246 9.22841 8.5259 9.40907 8.49646 9.587H7.84275C8.13132 8.12635 8.40812 6.64823 8.64369 5.13008H9.20317C9.20023 5.17893 9.18992 5.22057 9.17962 5.26221C9.16931 5.30401 9.159 5.34565 9.15606 5.3945ZM26.6237 5.17028C26.7238 4.72744 26.8003 4.2673 26.8533 3.79002V3.79579H27.5129C27.442 4.18401 27.3646 4.566 27.2873 4.94814C27.0759 5.99222 26.8646 7.0363 26.7827 8.20675H26.1938C26.1938 8.07734 26.2136 7.96731 26.2335 7.85728C26.2401 7.82076 26.2468 7.78409 26.2526 7.74677C26.2446 7.71922 26.2092 7.77464 26.1744 7.82909C26.1582 7.85456 26.1421 7.8797 26.129 7.8962C26.0701 7.96523 25.9816 8.06901 25.8993 8.12058C25.4635 8.4023 24.5919 8.3219 24.2915 7.98829C24.1148 7.79273 24.0677 7.52238 24.0618 7.24643C24.0442 5.82581 25.0218 4.6757 26.6237 5.17028ZM19.6919 5.45056C19.7209 5.34421 19.7496 5.23899 19.7685 5.12431C19.9065 5.12015 20.0639 5.10766 20.2295 5.09436C20.9902 5.0335 21.9255 4.95871 21.9594 5.62465C21.9717 5.87322 21.9125 6.14117 21.8515 6.41712C21.825 6.53708 21.7982 6.65864 21.7768 6.78052L21.7708 6.81464C21.6907 7.27286 21.6176 7.69039 21.6119 8.20098H21.0524C21.0465 8.02272 21.0701 7.87329 21.0995 7.72947C20.8286 8.14925 20.0512 8.45403 19.4152 8.18961C19.0854 8.05155 18.9146 7.55698 19.0677 7.05087C19.2974 6.29748 20.1808 6.12499 21.2644 6.22269L21.2699 6.20811C21.3167 6.08271 21.3806 5.91166 21.341 5.75118C21.2299 5.24892 20.0461 5.53384 19.6538 5.62833L19.6449 5.63042C19.6596 5.56892 19.6758 5.5095 19.6919 5.45056Z" fill="#333333"/>
</svg>
