<svg width="29" height="18" viewBox="0 0 29 18" fill="none" xmlns="http://www.w3.org/2000/svg">
<path d="M11.4589 9.00125C11.4574 7.63807 11.7755 6.29243 12.389 5.06622C13.0025 3.84002 13.8954 2.76541 15 1.92375C13.6323 0.880309 11.9897 0.231452 10.2601 0.0513426C8.53043 -0.128767 6.78348 0.167136 5.21889 0.905235C3.65429 1.64333 2.33517 2.79385 1.41229 4.22528C0.489408 5.65672 0 7.31133 0 9C0 10.6887 0.489408 12.3433 1.41229 13.7747C2.33517 15.2062 3.65429 16.3567 5.21889 17.0948C6.78348 17.8329 8.53043 18.1288 10.2601 17.9487C11.9897 17.7685 13.6323 17.1197 15 16.0762C13.8957 15.2349 13.003 14.1606 12.3895 12.9349C11.776 11.7092 11.4578 10.364 11.4589 9.00125Z" fill="#333333"/>
<path d="M29 9.00125C29 10.6899 28.5431 12.3444 27.6817 13.7757C26.8203 15.207 25.589 16.3574 24.1287 17.0953C22.6683 17.8332 21.0378 18.1289 19.4235 17.9485C17.8093 17.7682 16.2763 17.1191 15 16.0754C16.0302 15.2334 16.863 14.159 17.4357 12.9333C18.0084 11.7077 18.306 10.3627 18.306 9C18.306 7.63727 18.0084 6.29233 17.4357 5.06667C16.863 3.841 16.0302 2.76662 15 1.92457C16.2763 0.880921 17.8093 0.231824 19.4235 0.0514769C21.0378 -0.128871 22.6683 0.166808 24.1287 0.904716C25.589 1.64262 26.8203 2.79299 27.6817 4.22431C28.5431 5.65562 29 7.31015 29 8.99875V9.00125Z" fill="#333333"/>
<path d="M28.2376 13.9929V13.1702H28.3927V13H28V13.1702H28.1683V13.9929H28.2376ZM29 13.9929V13H28.8812L28.7426 13.7092L28.604 13H28.4983V13.9929H28.5842V13.2482L28.7129 13.8936H28.802L28.9307 13.2482V14L29 13.9929Z" fill="#F79E1B"/>
</svg>
