<svg width="26" height="18" viewBox="0 0 26 18" fill="none" xmlns="http://www.w3.org/2000/svg">
<path d="M1.49635 18C0.868721 18 0.359985 17.4964 0.359985 16.875V1.125C0.359985 0.503648 0.868721 0 1.49635 0C2.12398 0 2.63271 0.503648 2.63271 1.125V16.875C2.63271 17.4964 2.12398 18 1.49635 18Z" fill="#333333"/>
<path d="M6.04178 13.5C5.41415 13.5 4.90542 12.9964 4.90542 12.375V1.125C4.90542 0.503648 5.41415 0 6.04178 0C6.66941 0 7.17815 0.503648 7.17815 1.125V12.375C7.17815 12.9964 6.66941 13.5 6.04178 13.5Z" fill="#333333"/>
<path d="M10.5873 13.5C9.95964 13.5 9.4509 12.9964 9.4509 12.375V1.125C9.4509 0.503648 9.95964 0 10.5873 0C11.2149 0 11.7236 0.503648 11.7236 1.125V12.375C11.7236 12.9964 11.2149 13.5 10.5873 13.5Z" fill="#333333"/>
<path d="M15.1327 18C14.5051 18 13.9963 17.4964 13.9963 16.875V1.125C13.9963 0.503648 14.5051 0 15.1327 0C15.7603 0 16.2691 0.503648 16.2691 1.125V16.875C16.2691 17.4964 15.7603 18 15.1327 18Z" fill="#333333"/>
<path d="M19.6782 13.5C19.0506 13.5 18.5418 12.9964 18.5418 12.375V1.125C18.5418 0.503648 19.0506 0 19.6782 0C20.3058 0 20.8146 0.503648 20.8146 1.125V12.375C20.8146 12.9964 20.3058 13.5 19.6782 13.5Z" fill="#333333"/>
<path d="M24.2236 18C23.596 18 23.0873 17.4964 23.0873 16.875V1.125C23.0873 0.503648 23.596 0 24.2236 0C24.8512 0 25.36 0.503648 25.36 1.125V16.875C25.36 17.4964 24.8512 18 24.2236 18Z" fill="#333333"/>
<path d="M6.08729 18C5.45966 18 4.95092 17.4964 4.95092 16.875C4.95092 16.2536 5.45966 15.75 6.08729 15.75H6.11001C6.73764 15.75 7.24638 16.2536 7.24638 16.875C7.24638 17.4964 6.73764 18 6.11001 18H6.08729Z" fill="#333333"/>
<path d="M10.6327 18C10.0051 18 9.49635 17.4964 9.49635 16.875C9.49635 16.2536 10.0051 15.75 10.6327 15.75H10.6554C11.2831 15.75 11.7918 16.2536 11.7918 16.875C11.7918 17.4964 11.2831 18 10.6554 18H10.6327Z" fill="#333333"/>
<path d="M19.7236 18C19.096 18 18.5873 17.4964 18.5873 16.875C18.5873 16.2581 19.0891 15.7562 19.7123 15.75H19.735C20.3626 15.75 20.8714 16.2536 20.8714 16.875C20.8714 17.4964 20.3626 18 19.735 18H19.7236Z" fill="#333333"/>
</svg>
