<svg width="40" height="13" viewBox="0 0 40 13" fill="none" xmlns="http://www.w3.org/2000/svg">
<path d="M16.3501 4.7796e-07L14.3425 12.9739H17.5513L19.5576 4.7796e-07H16.3501ZM26.0288 5.28486C24.9075 4.70979 24.2201 4.32166 24.2201 3.73349C24.2338 3.19871 24.8014 2.65083 26.0689 2.65083C27.1114 2.62364 27.8776 2.87807 28.4589 3.13122L28.7501 3.2662L29.1863 0.551723C28.5525 0.29729 27.5476 0.0169431 26.3063 0.0169431C23.1376 0.0169431 20.9063 1.72792 20.8925 4.17501C20.8663 5.98081 22.49 6.98288 23.705 7.58401C24.9463 8.20066 25.3689 8.60046 25.3689 9.14834C25.3551 9.98952 24.3652 10.3776 23.4414 10.3776C22.1615 10.3776 21.4739 10.1777 20.4302 9.70903L20.0077 9.50913L19.559 12.3301C20.3127 12.6781 21.6989 12.9843 23.1377 13C26.5053 13 28.6965 11.3149 28.724 8.70696C28.735 7.27633 27.8788 6.18057 26.0288 5.28486ZM37.4126 0.0401513H34.93C34.165 0.0401513 33.5837 0.268671 33.2525 1.08394L28.4862 12.9739H31.8537L32.7811 10.3997H36.5487L37.0299 12.9843H40L37.4126 0.0401513ZM33.7151 7.80185C33.78 7.8084 35.0076 3.59965 35.0076 3.59965L35.9851 7.80185C35.9851 7.80185 34.3489 7.80185 33.7151 7.80185ZM11.6613 4.7796e-07L8.51756 8.8146L8.17509 7.07628C7.5938 5.07058 5.77137 2.89102 3.73753 1.80837L6.6163 12.961H10.0114L15.0564 0.0014235H11.6613V4.7796e-07Z" fill="#333333"/>
<path d="M7.11753 1.6741C6.87254 0.684849 6.09122 0.0176561 5.03009 0.00341813H0.0512743L0 0.24347C3.88382 1.23785 7.14372 4.2976 8.20129 7.17566L7.11753 1.6741Z" fill="#8C8C8C"/>
</svg>
